<svg xmlns="http://www.w3.org/2000/svg" viewBox="0 0 618.57 81.47"><defs><style>.cls-1{fill:#f4f9ff;}</style></defs><g id="Business_Card" data-name="Business Card"><path class="cls-1" d="M5.91,51a17.38,17.38,0,0,0,1.27,2.2A39.1,39.1,0,0,1,9.83,58.3c.53,1.15.89,2.09,1.39,3a15.56,15.56,0,0,0,1.24,1.83c.21.28.31.44.3.49a.57.57,0,0,0,0,.21,4.15,4.15,0,0,1-.56-.55,14.61,14.61,0,0,1-1.71-2,14.32,14.32,0,0,1-1.18-2.45,35.88,35.88,0,0,0-2.46-4.64,36.83,36.83,0,0,1-2.31-3.92,8.19,8.19,0,0,1-.33-6.63A32.66,32.66,0,0,0,5.6,39.84a.49.49,0,0,1,.31-.39A5.83,5.83,0,0,0,8,38c.31-.33.48-.24.67.14a6.14,6.14,0,0,1,.19,4.78c-.46,1.23-1,2.25-1.34,3.42a6.07,6.07,0,0,0-.08,3.12,8,8,0,0,0,1.12,2.44c.68,1.09,1.39,2.19,2.07,3.31.19.31.34.64.51,1,.05.1.09.25.2.28s.06-.11.06-.19a1.06,1.06,0,0,0-.08-.44c-.31-.87-.55-1.76-.94-2.65-1.09-2.51-.75-4.22.35-5.75a17.59,17.59,0,0,0,1.74-2.87A9.78,9.78,0,0,0,13.12,41a14.08,14.08,0,0,0-1.51-6.42c-.29-.69-.29-.79.22-1.41a17,17,0,0,1,1.37-1.55c.21-.18.38-.31.52,0a36.48,36.48,0,0,1,2.23,6,20.55,20.55,0,0,1,.52,3.74,17.75,17.75,0,0,1-1.35,8,13.67,13.67,0,0,0-1.29,5.94,15.44,15.44,0,0,0,.55,4.06,21.39,21.39,0,0,0,1.8,4.24c.48.87.77,1.66,1.13,2.43.16.35.08.45-.16.32-.45-.25-.89-.49-1.34-.79a3.36,3.36,0,0,1-1.08-1.15c-.51-.73-1-1.48-1.45-2.23s-1-1.58-1.6-2.37A19.28,19.28,0,0,1,9.94,57a38,38,0,0,0-2.87-4.5C6.71,52,6.33,51.48,6,51Z"/><path class="cls-1" d="M61.53,47.3a20.28,20.28,0,0,1-3.17,8.4c-1.75,2.89-3.54,5.76-5.31,8.63A26.29,26.29,0,0,0,50.74,69a3.09,3.09,0,0,1-1.45,1.82,17.37,17.37,0,0,1-1.75.75c-.61.27-1.25.63-1.87.88a4.71,4.71,0,0,1-3.85.07,4.09,4.09,0,0,1-1.33-.92c-.82-.85-1-2-.24-3.51a19.62,19.62,0,0,1,2-3c1.51-2.08,3.16-4.14,4.64-6.56A103.78,103.78,0,0,0,52.12,48,60.52,60.52,0,0,1,55,41.53a8.16,8.16,0,0,1,1.65-2.28c1-.84,1.91-.72,2.83.35a9.42,9.42,0,0,1,2,5.36A9.25,9.25,0,0,1,61.53,47.3Zm-3.17.22a7.84,7.84,0,0,0-.11-2.33c-.24-1-.89-1.23-1.52-.44a7.8,7.8,0,0,0-.65,1,37.6,37.6,0,0,0-2.24,5.35,37.72,37.72,0,0,1-3.3,6.82c-1.6,2.51-3.39,4.91-5.16,7.31a14.57,14.57,0,0,0-1.85,3.07,2.37,2.37,0,0,0,.63,3c.77.61,1.7.26,2.71-.36a1.35,1.35,0,0,0,.81-1.64A3.1,3.1,0,0,1,48,67.39c.25-.52.51-1,.81-1.55C50,64,51.24,62.36,52.46,60.6A58.16,58.16,0,0,0,56,55.15,18.65,18.65,0,0,0,58.36,47.52Z"/><path class="cls-1" d="M64.29,50.69c-.4.87-.77,1.66-1.18,2.45-.77,1.49-1.71,2.91-2.61,4.35-1.23,2-2.32,4-3.41,5.91-.63,1.14-1.28,2.27-1.78,3.31A3.81,3.81,0,0,0,54.86,68a.56.56,0,0,1-.29.41,15.62,15.62,0,0,1-2.28,1.4c-.33.16-.28-.22-.26-.55a7,7,0,0,1,.8-2.33c.84-1.64,1.86-3.26,2.79-4.92,1.4-2.51,3-4.87,4.45-7.36a22.07,22.07,0,0,0,2.48-6,11.55,11.55,0,0,0,0-5.45A46.89,46.89,0,0,0,59.87,36c-.48-1.08-.47-1.18.31-1.53a2.32,2.32,0,0,1,2.26.31,1.27,1.27,0,0,1,.4.4A37.56,37.56,0,0,1,66,41.61a12.51,12.51,0,0,1,.35,5.9,29.85,29.85,0,0,1-1.61,5.68c-.56,1.45-1.27,2.89-2,4.29-.37.73-.76,1.46-1,2.16a4.56,4.56,0,0,0,.53-.8c1.1-1.85,2.33-3.71,3.27-5.6a30.32,30.32,0,0,0,2.78-7.66A14.71,14.71,0,0,0,68.48,44c0-.26.06-.41.25-.26a.62.62,0,0,0,.85,0c.24-.19.23,0,.23.22a9.49,9.49,0,0,1-.32,2.17A44.07,44.07,0,0,1,64,58c-.74,1.16-1.38,2.26-1.87,3.16a4.4,4.4,0,0,0-.54,1.32c-.05.27-.25.42-1.22,1.36-.43.42-.81.77-1.19,1.13-.14.12-.22.18-.23.17s-.31,0-.47-.15.18-1.29.8-2.63c1-2.17,2.21-4.62,3.38-7.1a30.37,30.37,0,0,0,1.55-4A1.13,1.13,0,0,0,64.29,50.69Z"/><path class="cls-1" d="M41.43,48a79.1,79.1,0,0,1-.29,8.36,57.27,57.27,0,0,1-1.38,8.07c-.28,1.18-.5,2.35-.68,3.5a4.7,4.7,0,0,0,.55,3.24c.23.38.48.73.7,1.08a.67.67,0,0,1,.16.61.58.58,0,0,1-.43.44,2.71,2.71,0,0,1-3.15-.73,8.83,8.83,0,0,0-5.5-2.68,3.23,3.23,0,0,1-1.06-.26,1.51,1.51,0,0,1-.69-.63c-.31-.54-.34-.92-.06-1.3a10.62,10.62,0,0,1,2-2c.11-.08.23-.23.34-.11s0,.33,0,.49c-.2,1.21,0,1.68.88,2.08a6.36,6.36,0,0,0,2.4.64,1,1,0,0,0,.88-.63,8.81,8.81,0,0,0,.58-1.71,38.84,38.84,0,0,0,1-6.07,75.28,75.28,0,0,0,.58-9.24,100.51,100.51,0,0,0-.87-13.31,20.37,20.37,0,0,1-.24-5.34l0-.25c.42-2.56,1.74-3.31,3.29-1.85A12.41,12.41,0,0,1,42.87,34,56.44,56.44,0,0,1,48,49.31a12.21,12.21,0,0,1-1.83,8.6c-.16.27-.32.34-.5.2a6.58,6.58,0,0,1-1.7-2.33.79.79,0,0,1,0-.67,13.49,13.49,0,0,0,.68-7.91,25.14,25.14,0,0,0-1.76-5.78,4.55,4.55,0,0,0-.62-1c-.35-.43-.66-.27-.73.41,0,.45,0,.91-.06,1.37C41.48,44.13,41.46,46.06,41.43,48Z"/><path class="cls-1" d="M27.45,43.65A24.34,24.34,0,0,1,27,48.56c-.1.57-.31.68-.69.52a6,6,0,0,1-2.51-2.77c-.74-1.31-1.41-2.69-2.08-4-.09-.17-.17-.44-.31-.39s-.09.36-.08.54a20.23,20.23,0,0,1-1.16,7.15,1.43,1.43,0,0,0,.09,1.27c.8,1.68,1.48,3.46,2.24,5.16a1.19,1.19,0,0,1,.11.82,13.5,13.5,0,0,0-.38,2.4c0,.14,0,.37-.1.37s-.18-.24-.24-.38c-.87-1.84-1.72-3.71-2.65-5.53-.31-.62-.36-.62-.55-.11A12.66,12.66,0,0,0,18.22,60a2.15,2.15,0,0,0,.27.81c1.4,2.11,2.49,4.38,3.71,6.51A17.84,17.84,0,0,0,23.3,69c.71,1,1.35,1.41,2,1.4.29,0,.44.32.61.65s.08.47-.07.52c-1,.34-2-.26-3.42-2.2-1-1.33-1.87-2.76-2.83-4.16a17.35,17.35,0,0,0-2-2.46,1.5,1.5,0,0,0-.21-.22,4,4,0,0,1-1.54-2.38,12.33,12.33,0,0,1-.52-5.35,18.2,18.2,0,0,1,1.33-4.59,23,23,0,0,0,1.4-5.71,21.19,21.19,0,0,0-.61-7.12,57,57,0,0,0-2.13-6.26c-.09-.24-.31-.47-.17-.79s.44-.26.67-.31c1.37-.26,2.3.69,3.23,1.82a40.16,40.16,0,0,1,3.5,5.74A18.31,18.31,0,0,0,25,41a2.66,2.66,0,0,0,1.95,1c.38,0,.55.21.53.76C27.43,43.12,27.44,43.44,27.45,43.65Z"/><path class="cls-1" d="M35.76,13.33c-.89,1.93-1.94,3.81-2.78,6A12,12,0,0,0,32.62,27c.37,1.42.82,2.84,1.31,4.25a1.13,1.13,0,0,1-.11,1.14c-.43.63-.84,1.3-1.26,2-.19.31-.36.4-.5-.06-.81-2.66-1.74-5.18-2.38-7.69a14.15,14.15,0,0,1,.94-8.67c.75-1.82,1.56-3.54,2.27-5.24A6.12,6.12,0,0,0,33,7.56c-.06-.13-.18-.23-.11-.41s.22-.12.34-.14.49,0,.74-.06a.62.62,0,0,1,.57.2,13.55,13.55,0,0,1,3.22,5.14,7,7,0,0,1,.21,4c-.19.77-.4,1.55-.61,2.35a2.68,2.68,0,0,0-.14.95c.36-.61.67-1.15,1-1.68.4-.68.81-1.33,1.16-2a4.38,4.38,0,0,0-.14-4.63c-.75-1.42-1.61-2.62-2.34-3.85l-.15-.28c-.13-.23-.07-.32.11-.32s.62,0,.93,0c.93.06,1.84.07,2.73.11.24,0,.42.14.56.48a16.54,16.54,0,0,1,1.3,4.9,11.26,11.26,0,0,1-.62,4.36,12.6,12.6,0,0,1-1.23,2.53,9.92,9.92,0,0,0-.79,7.59c.18.73.38,1.45.57,2.18,0,.12.1.25,0,.36s-.16,0-.24,0a2.78,2.78,0,0,0-2.54-.54.39.39,0,0,1-.51-.24A33.62,33.62,0,0,1,34.77,24a8.62,8.62,0,0,1-.13-5.43,42.35,42.35,0,0,0,1.12-4.18A1.93,1.93,0,0,0,35.76,13.33Z"/><path class="cls-1" d="M53.14,40.1a8,8,0,0,1-1.32,4.46c-.85,1.15-1.83,1.25-2.68.23a11.51,11.51,0,0,1-1.78-3.4c-1.73-4.49-3.6-8.9-5.62-13.27-.26-.56-.47-1.17-.7-1.75a7.32,7.32,0,0,1,.07-5.78,33.83,33.83,0,0,0,1.37-3.33,23.09,23.09,0,0,0,.68-3.93,10.54,10.54,0,0,1,1.43-4.62,1.59,1.59,0,0,1,.64-.6,2.77,2.77,0,0,1,1.53-.29A3.76,3.76,0,0,1,49,9.57a1.94,1.94,0,0,1,.51,1.6,6.45,6.45,0,0,0-.32,1.62c0,1.05,0,2.24.12,3.47,0,.72.11,1.47.14,2.22s-.3,1.08-1,.77a7.27,7.27,0,0,1-1-.56,1,1,0,0,1-.44-.8c-.1-.82-.07-1.58-.1-2.34-.07-1.68-.1-3.26-.17-4.77a3.15,3.15,0,0,0-.09-.58.78.78,0,0,0-.49-.64.63.63,0,0,0-.82.34,6,6,0,0,0-.59,2.65c-.07,1.81-.14,3.73-.4,5.67a29.61,29.61,0,0,1-.7,3.57,11.73,11.73,0,0,0,.49,7,53.58,53.58,0,0,0,3.93,8.45,5.4,5.4,0,0,0,1,1.22c.27.26.57.41.84.14a1.45,1.45,0,0,0,.24-1.2,9.55,9.55,0,0,0-.52-2.09c-.62-1.64-1.23-3.3-1.8-5-.12-.34-.22-.69-.32-1,0-.12-.07-.25,0-.33s.14,0,.19.09a5.34,5.34,0,0,0,2.64,1.62c.16,0,.25.21.32.4.59,1.82,1.35,3.53,1.93,5.33A12.82,12.82,0,0,1,53.14,40.1Z"/><path class="cls-1" d="M50.47,27.09a31.13,31.13,0,0,1-.07-4c0-2.33,0-4.57-.2-6.7-.12-1.61,0-3,0-4.25a13.61,13.61,0,0,0-.17-2c-.05-.33.13-.16.27-.07.43.3.88.68,1.3.93a6.18,6.18,0,0,0,1.37.62,7.64,7.64,0,0,1,1.08.48,1.67,1.67,0,0,1,.37.32c.64.73,1.29,1.45,1.94,2.17.08.09.19.19.19.29s-.09,0-.17-.05a9.22,9.22,0,0,0-2.14-1.09,5.23,5.23,0,0,1-1.11-.47c-.3-.19-.14.13,0,.37A8.55,8.55,0,0,1,54,16.17a6.21,6.21,0,0,1,0,1.88c-.07.55-.17,1.12-.28,1.7a.49.49,0,0,0,0,.42c.14.19.19,0,.25-.05a4.62,4.62,0,0,1,2.88-1.28,1.67,1.67,0,0,1,.43.05c.08,0,.13-.1.27.1a.61.61,0,0,1,.08.39q0,1.13-.09,2.31c0,.2-.07.36-.22.4-1,.28-1.7,1.33-2.47,2.42-.46.64-.94,1.32-1.47,2a1.41,1.41,0,0,0-.2,1.21,31.48,31.48,0,0,0,1.89,6.19c.15.39.27.41.45.1a36.51,36.51,0,0,1,1.93-3.24,5.84,5.84,0,0,1,.73-.82c.17-.17.31-.1.41.27.27.93.63,1.83,1,2.73.1.27.17.51,0,.66-1.28.95-2.13,2.69-3.11,4.45l-1.19,2.14c-.15.28-.29.39-.43,0-1.11-3.25-2.45-6.42-3.55-9.67A20.07,20.07,0,0,1,50.47,27.09Z"/><path class="cls-1" d="M63.24,34.42a8.4,8.4,0,0,0-1.56-1,2.31,2.31,0,0,0-.88-.16c-.32,0-.49-.21-.67-.63a16.38,16.38,0,0,1-1.26-8.48,19.14,19.14,0,0,0,0-6.05,6.85,6.85,0,0,0-2-3.33c-.52-.57-1.05-1.12-1.57-1.69l-.09-.12s.1,0,.16.08c1.43,1.19,2.78,2.2,4.26,3.52s2.78,2.47,4.3,4.08C65.26,22.05,66,23,66.07,24a8.52,8.52,0,0,1-.18,3.16c-.12.39-.38.57-.87.33s-.3.13-.23.44a26.86,26.86,0,0,0,1.3,4.2c.91,2.29,1.94,4.42,2.73,6.54a20.14,20.14,0,0,1,1,3.38c.09.53-.06.8-.47.86a.71.71,0,0,1-.73-.65,32.46,32.46,0,0,0-2.94-7.79c-.69-1.44-1.39-2.94-2-4.5a21,21,0,0,1-1.07-4.11A2.6,2.6,0,0,0,61.42,24c-.14-.09-.21-.07-.22.1a22.08,22.08,0,0,0,.21,4.75,21.11,21.11,0,0,0,1.51,4.57c.12.27.22.53.33.8A.62.62,0,0,1,63.24,34.42Zm.38-13.17a7.51,7.51,0,0,0-.8-1.05C62.2,19.54,61.59,19,61,18.41c-.19-.17-.22-.14-.16,0A7.44,7.44,0,0,1,61.19,21a1,1,0,0,0,.35.7l1.08,1.14c.79.81,1.2.85,1.21.2,0-.35,0-.67,0-1A1.66,1.66,0,0,0,63.62,21.25Z"/><path class="cls-1" d="M30.31,10a6,6,0,0,1-2.21-.12c-.35-.09-.45,0-.7.54-.76,1.75-1.5,3.57-2.18,5.46-.33,1-.67,1.92-.93,2.91a.89.89,0,0,0,.1.84,4.23,4.23,0,0,0,2.12,1.6,3,3,0,0,0,.79,0c.29,0,.45.16.39.65a15,15,0,0,0-.1,2.92c0,.56-.32.54-.55.53A3.54,3.54,0,0,1,25.58,25a7.89,7.89,0,0,1-1.83-1.37c-.09-.09-.15-.29-.29-.16s-.12.36-.11.54a16.47,16.47,0,0,0,.81,4.55c.55,1.76,1.18,3.55,1.8,5.43.24.75.5,1.11,1.36.91a5.47,5.47,0,0,0,2.88-2.22c.44-.55.47-.55.71.2s.45,1.45.69,2.18a.87.87,0,0,1-.05.83,25,25,0,0,1-2.7,3.65c-1.45,1.42-3,1.24-4.23-.41a1.82,1.82,0,0,1-.33-.73,55.64,55.64,0,0,0-2.86-9.34,15,15,0,0,1-.89-4.83,12.71,12.71,0,0,1,.85-4.06c1.28-3.49,2.68-6.83,4.24-10.2.27-.56.53-1.12.76-1.68.15-.37.3-.53.51-.56.47-.07.94-.13,1.43-.18,1.15-.13,2.33-.11,3.58-.32.35-.06.56.07.67.53a1.59,1.59,0,0,0,.07.2C33,9,32.82,9.3,32,9.51A13.54,13.54,0,0,1,30.31,10Z"/><path class="cls-1" d="M14.44,24.42a10.56,10.56,0,0,0,.05,4.37c.15.6.15.63-.35,1a16.84,16.84,0,0,0-1.4,1.29c-.24.22-.38.21-.49-.08a9.81,9.81,0,0,1,.18-6.84,33.41,33.41,0,0,1,3.1-6.33,16.88,16.88,0,0,0,1.36-2.73c.36-1,.21-1.44,0-1.69a.91.91,0,0,0-.57-.26s-.15.08,0-.09a1.71,1.71,0,0,1,.28-.27,8.17,8.17,0,0,1,2.68-1.66c.71-.23,1.42-.29,2.34-.66.57-.23,1.17-.55,1.78-.84a3.79,3.79,0,0,1,1.27-.42c.46,0,.57.36.27,1.18-.44,1.22-1.08,2.43-1.62,3.67a27.17,27.17,0,0,1-1.5,3.07c-.87,1.46-1.84,2.17-2.83,2.16-.67,0-1.3,0-1.93,0s-.62.11-1,.94A19.21,19.21,0,0,0,14.44,24.42Zm5.06-7.93a1.91,1.91,0,0,0,1.08-.87A22.78,22.78,0,0,0,22.46,12c.12-.28.09-.45,0-.5a.52.52,0,0,0-.43,0,23.36,23.36,0,0,1-2.26.73.33.33,0,0,0-.21.14.23.23,0,0,0-.05.26A3.08,3.08,0,0,1,19.21,14a16.73,16.73,0,0,1-.94,2c-.13.24-.3.54-.08.54A6.52,6.52,0,0,0,19.5,16.49Z"/><path class="cls-1" d="M14.61,14.71c.76-.51,1.4-.8,1.61-.26.1.23,0,.38-.49.86s-1.1,1.1-1.66,1.74c-.1.12-.23.3-.31.31s0-.16.08-.28c.26-.54.3-.88.08-.83a3.36,3.36,0,0,0-1.11,1,33.64,33.64,0,0,0-3.34,4.49A2.78,2.78,0,0,0,9,23.1,2.07,2.07,0,0,0,10.1,25c.75.44,1.1,1.34.94,3-.11,1.14-.13,2.3-.31,3.54a8.45,8.45,0,0,1-2.4,5.23c-.75.68-1.47.75-2.1.15a6.68,6.68,0,0,1-2.3-5.3c0-.12-.05-.26.08-.38s.14.06.19.13a1,1,0,0,0,1,.51c.26,0,.37.11.41.43a2.15,2.15,0,0,0,1.07,1.8c.67.31,1.48-.41,1.77-1.53a3,3,0,0,0-.35-2.9c-.45-.48-1-.79-1.15-1.46a6.66,6.66,0,0,1-.14-1.9,16,16,0,0,1,.1-2c.14-1.21,1.15-2.55,2.57-4.15.85-1,1.69-1.92,2.53-2.89A24.44,24.44,0,0,1,14.26,15l.12-.1Z"/><path class="cls-1" d="M31.66,44A26.69,26.69,0,0,1,29,55.63c-.58,1.21-1.22,2.27-1.82,3.31A10.19,10.19,0,0,0,26,65.87a5,5,0,0,0,2.37,3.73,28.84,28.84,0,0,0,3.32,1.45.76.76,0,0,1,.5.74c0,.39.12.77.18,1.15s0,.45-.25.3l-1-.61a11.91,11.91,0,0,0-3.49-1.29.69.69,0,0,0-.13,0c-.39-.15-.78.09-1.14-.4a10.82,10.82,0,0,1-1.83-3.07,20.72,20.72,0,0,1-.91-5.9,14.46,14.46,0,0,1,2-7.24,23.09,23.09,0,0,0,2.54-9.11,16.54,16.54,0,0,0,0-3.07,1.44,1.44,0,0,1,.48-1.37,11,11,0,0,0,2-2.45c.11-.16.19-.49.38-.38s.15.39.19.62A28.6,28.6,0,0,1,31.66,44Z"/><path class="cls-1" d="M88.8,57.34V55l9.57-1V56.4c0,4.79,2.44,7.7,6.38,7.7s6.39-2.44,6.39-6.29c0-4.13-1.69-7.13-9.11-14.17-9.85-9.29-12.67-14.36-12.67-21.59,0-9.76,5.63-16.14,15.11-16.14s15.11,6.38,15.11,16.23v1.69l-9.57,1V23c0-5.07-2-7.7-5.45-7.7s-5.44,2.16-5.44,6.29,2.07,7.13,9.11,14.17c9.57,9.58,12.67,14.36,12.67,21.59,0,9.39-6.57,16.14-16.05,16.14S88.8,66.73,88.8,57.34Z"/><path class="cls-1" d="M129.35,6.84h15.58c9.48,0,15.58,6.2,15.58,15.68v7.7c0,9.48-6.1,15.67-15.58,15.67h-5.64V72.55h-9.94ZM144.46,36.5c3.84,0,6.1-2.25,6.1-6.1V22.33c0-3.85-2.26-6.1-6.1-6.1h-5.17V36.5Z"/><path class="cls-1" d="M168.86,6.84h28.25v9.39h-18.3v18.3h14.55v9.39H178.81V63.16h18.3v9.39H168.86Z"/><path class="cls-1" d="M205.47,6.84h11L229.12,51V6.84h9.76V72.55H228.37l-13.14-42V72.55h-9.76Z"/><path class="cls-1" d="M248.93,57.9V21.49c0-9.2,6.28-15.58,15.58-15.58s15.58,6.38,15.58,15.58v7.69h-9.76V21.49c0-3.85-2.35-6.2-5.73-6.2s-5.72,2.35-5.72,6.2V57.9c0,3.85,2.34,6.2,5.72,6.2s5.73-2.35,5.73-6.2V48.52h9.76V57.9c0,9.2-6.29,15.58-15.58,15.58S248.93,67.1,248.93,57.9Z"/><path class="cls-1" d="M289.19,6.84h28.25v9.39h-18.3v18.3h14.55v9.39H299.14V63.16h18.3v9.39H289.19Z"/><path class="cls-1" d="M348.14,72.55l-7.23-27.13h-5.16V72.55H325.8V6.84h15.58C350.86,6.84,357,13,357,22.52v7.23c0,6.1-2.53,10.79-6.85,13.42l8.35,29.38ZM335.75,36h5.16c3.85,0,6.1-2.26,6.1-6.11v-7.6c0-3.85-2.25-6.1-6.1-6.1h-5.16Z"/><path class="cls-1" d="M385.4,6.84h11L409.06,51V6.84h9.76V72.55H408.3l-13.13-42V72.55H385.4Z"/><path class="cls-1" d="M429.71,6.84H458v9.39h-18.3v18.3H454.2v9.39H439.66V63.16H458v9.39H429.71Z"/><path class="cls-1" d="M466.31,6.84h9.95V63.16H494v9.39H466.31Z"/><path class="cls-1" d="M499.45,57.34V55L509,54V56.4c0,4.79,2.44,7.7,6.38,7.7s6.39-2.44,6.39-6.29c0-4.13-1.69-7.13-9.11-14.17C502.83,34.35,500,29.28,500,22.05c0-9.76,5.63-16.14,15.11-16.14s15.11,6.38,15.11,16.23v1.69l-9.57,1V23c0-5.07-2-7.7-5.44-7.7s-5.45,2.16-5.45,6.29,2.07,7.13,9.11,14.17c9.57,9.58,12.67,14.36,12.67,21.59,0,9.39-6.57,16.14-16,16.14S499.45,66.73,499.45,57.34Z"/><path class="cls-1" d="M539.15,57.62V21.77c0-9.48,6.38-15.86,16-15.86s15.95,6.38,15.95,15.86V57.62c0,9.48-6.38,15.86-15.95,15.86S539.15,67.1,539.15,57.62Zm22,0V21.77c0-4.13-2.34-6.48-6-6.48s-6,2.35-6,6.48V57.62c0,4.13,2.35,6.48,6,6.48S561.11,61.75,561.11,57.62Z"/><path class="cls-1" d="M581.11,6.84h11L604.76,51V6.84h9.76V72.55H604l-13.14-42V72.55h-9.76Z"/></g></svg>