<?xml version="1.0" encoding="utf-8"?>
<!-- Generator: Adobe Illustrator 25.2.1, SVG Export Plug-In . SVG Version: 6.00 Build 0)  -->
<svg version="1.1" id="Layer_1" xmlns="http://www.w3.org/2000/svg" xmlns:xlink="http://www.w3.org/1999/xlink" x="0px" y="0px"
	 viewBox="0 0 576 576" style="enable-background:new 0 0 576 576;" xml:space="preserve">
<style type="text/css">
	.st0{fill:#FFFFFF;}
</style>
<g>
	<g>
		<path class="st0" d="M26.8,380.1c2.9,6.4,6.8,12.6,10.8,18.7c9.8,15.1,16.1,29.6,22.4,43.2c4.5,9.8,7.6,17.7,11.8,25.6
			c2.7,4.9,6.7,10.5,10.5,15.6c1.7,2.3,2.6,3.7,2.5,4.1c-0.2,0.8-0.1,1.4-0.1,1.7c0,0.3-1.4-1.2-4.7-4.6
			c-6.4-6.6-11.2-12.2-14.5-17.2c-4.4-6.6-6.4-12.5-10-20.8c-4.9-11.2-11.8-24.9-20.8-39.4c-6.9-11.1-14.4-21.9-19.6-33.2
			c-9.5-20.8-9.3-38.4-2.8-56.3c3.6-10,8.9-19.7,12-32.2c0.4-1.8,1.4-2.8,2.7-3.3c6.2-2.5,12-6.8,17.4-12.6c2.6-2.8,4-2,5.6,1.2
			c6.1,12.4,6.6,27.4,1.7,40.6c-3.9,10.5-8.8,19.1-11.4,29c-2.2,8.4-2.9,16.8-0.7,26.5c1.7,7.3,5.4,14.1,9.5,20.7
			c5.8,9.3,11.8,18.6,17.6,28.1c1.6,2.6,2.8,5.4,4.3,8.1c0.5,0.9,0.8,2.1,1.7,2.4c0.8,0.2,0.5-0.9,0.5-1.6c0.1-1.1-0.2-2.3-0.7-3.7
			c-2.6-7.4-4.7-14.9-8-22.5c-9.3-21.3-6.4-35.8,3-48.8c5.1-7.1,10.3-14.8,14.7-24.4c4-8.7,5.3-18.9,5.8-30.3
			c1-22.5-6.4-39-12.8-54.5c-2.4-5.9-2.4-6.7,1.9-11.9c3.8-4.5,7.4-9.4,11.6-13.2c1.8-1.6,3.3-2.6,4.4,0c6.6,15,13.9,31.3,18.9,51.2
			c2.5,10,3.7,20.8,4.4,31.7c1.8,27.2-4,49.2-11.5,68c-6.6,16.5-11.7,32.1-10.9,50.4c0.5,11.7,1,22.5,4.7,34.4
			c3.7,12.1,8.5,23.9,15.2,36c4.1,7.3,6.6,14,9.6,20.6c1.4,3,0.7,3.8-1.3,2.7c-3.8-2.1-7.6-4.2-11.4-6.7c-3.6-2.3-5.5-4.4-9.2-9.8
			c-4.3-6.2-8.4-12.6-12.3-18.9c-4.1-6.7-8.7-13.4-13.6-20.1C70,447,64.9,439.2,61,431.2c-6.7-13.4-15.9-25.8-24.3-38.2
			c-3.1-4.5-6.3-8.9-9.4-13.4C27.1,379.8,26.9,379.9,26.8,380.1z"/>
		<path class="st0" d="M498.9,348.7c-2.6,24.1-13.6,51.1-26.9,71.3c-14.9,24.5-30.1,48.9-45.1,73.3c-8.1,13.1-14.7,26.1-19.6,39.2
			c-3.1,8.3-6.7,12.3-12.3,15.4c-5.1,2.8-9.8,4.3-14.8,6.4c-5.2,2.3-10.6,5.3-15.8,7.4c-11.7,4.8-22.2,5.1-32.7,0.5
			c-4-1.7-7.8-4.2-11.3-7.8c-7-7.2-8.2-17.2-2.1-29.8c4.6-9.4,10.6-17.4,16.6-25.7c12.9-17.6,26.8-35.2,39.4-55.6
			c16.8-29.1,31.2-57.7,44.7-88.5c7.7-19.1,15-38.4,24.2-55.3c4.1-7.5,8.5-14.5,14-19.3c8.2-7.2,16.2-6.1,24.1,2.9
			c10.5,12.1,15.6,28.2,17.4,45.5C499.5,336.5,499.7,344.3,498.9,348.7z M471.9,350.5c0.5-6.8,0.6-13.5-0.9-19.8
			c-2-8.7-7.5-10.5-12.9-3.8c-2,2.5-3.9,5.3-5.6,8.3c-7.9,13.8-13,29.9-19,45.4c-7.8,20.4-16.7,40.1-28,57.9
			c-13.6,21.3-28.8,41.7-43.8,62c-5.9,8.2-11.7,16.3-15.7,26.1c-2.6,6.3-3.1,11.9-1,16.6c1.7,3.8,3.8,6.5,6.3,8.5
			c6.6,5.2,14.4,2.2,23-3c6.2-3.8,8-7,6.9-13.9c-0.8-4.6,0.2-9.7,3-15.6c2.1-4.5,4.3-9,7-13.2c9.5-15.3,20.3-29.5,30.6-44.5
			c10.3-14.9,20.7-29.8,29.6-46.2C462.6,394.8,470.3,373.7,471.9,350.5z"/>
		<path class="st0" d="M522.3,377.4c-3.4,7.4-6.5,14.2-10,20.8c-6.5,12.7-14.5,24.7-22.2,37c-10.4,16.6-19.7,33.6-28.9,50.1
			c-5.4,9.7-10.9,19.3-15.2,28.1c-2.1,4.4-3.8,8.3-3.8,10.6c0,1.1-0.7,2.2-2.4,3.4c-6.6,4.7-13.2,9-19.4,11.9
			c-2.8,1.3-2.4-1.9-2.2-4.7c0.4-5.2,2.9-12.2,6.8-19.8c7.1-13.9,15.8-27.7,23.6-41.8c11.9-21.3,25.9-41.4,37.8-62.5
			c9.2-16.4,17.2-33.1,21.1-51c3.5-15.8,4-31.2,0.1-46.3c-5.2-20.3-13.9-40-22.9-60.5c-4.1-9.2-4-10,2.6-13
			c6.3-2.8,12.7-1.5,19.2,2.6c1.3,0.8,2.5,1.7,3.4,3.3c10.1,18.6,20.8,35.4,26.6,54.4c5.1,16.4,6,32.9,3,50.1
			c-2.9,16.4-7.6,32.5-13.7,48.2c-4.8,12.3-10.8,24.6-16.8,36.5c-3.1,6.2-6.4,12.4-8.7,18.3c2.2-2.6,3.3-4.7,4.6-6.8
			c9.3-15.6,19.8-31.4,27.7-47.6c10.5-21.2,19.5-42.7,23.6-65c0.8-4.5,1.2-9.1,1.6-13.7c0.2-2.2,0.5-3.5,2.1-2.2
			c2.2,1.7,4.6,1.9,7.2-0.3c2-1.6,1.9,0.3,1.9,1.9c-0.1,6.1-1.1,12.3-2.7,18.4c-9.9,36-26.3,69.9-46.5,101.3
			c-6.3,9.9-11.7,19.1-15.9,26.8c-3.6,6.6-4.2,9.4-4.5,11.2c-0.5,2.4-2.2,3.6-10.4,11.5c-3.7,3.6-6.9,6.6-10.1,9.6
			c-1.1,1-1.8,1.6-1.9,1.4c-0.4-0.8-2.6-0.1-4-1.2c-2.3-1.8,1.5-11,6.7-22.4c8.5-18.4,18.8-39.2,28.7-60.3
			c5.3-11.2,9.6-22.5,13.2-34C522.1,380.7,522.6,379.3,522.3,377.4z"/>
		<path class="st0" d="M328.2,354.3c0.2,24.3-0.1,48-2.4,70.9c-2.4,23.9-6.5,46.9-11.7,68.5c-2.4,10-4.3,20-5.8,29.7
			c-1.7,10.8,0.2,20.2,4.7,27.5c2,3.2,4,6.2,6,9.1c0.9,1.4,1.9,2.8,1.3,5.2c-0.6,2.5-2.2,3.2-3.6,3.7c-9.7,3.4-18.7,2.5-26.7-6.2
			c-13.4-14.5-30-20.5-46.7-22.8c-3-0.4-6-0.7-9-2.2c-2.2-1.1-4.2-2.5-5.8-5.4c-2.7-4.6-2.9-7.8-0.5-11c4.8-6.5,10.4-12.3,16.9-17.3
			c0.9-0.7,1.9-2,2.9-1c1.1,1.2,0.2,2.8,0,4.2c-1.7,10.2,0.1,14.3,7.4,17.6c6.7,3.1,13.4,5.1,20.3,5.4c3.3,0.1,5.6-1.6,7.5-5.3
			c2.2-4.3,3.4-9.5,4.9-14.5c4.6-16,6.4-33.6,8.5-51.5c3.2-25.8,5-52.5,4.9-78.5c0-37.7-2.4-75.6-7.4-113c-2-15.1-4-30.2-2-45.3
			c0.1-0.7,0.1-1.4,0.3-2.1c3.5-21.7,14.8-28.1,27.9-15.7c8.4,8,14.8,19.1,20.5,30.9c19.8,41,35.9,85,43.3,130.1
			c4.9,23.1-2.3,53.7-15.5,73c-1.4,2.3-2.7,2.9-4.3,1.7c-5.8-4.6-10.4-11.5-14.4-19.7c-0.9-1.8-0.5-3.8,0.3-5.8
			c9.1-21.5,10-43.7,5.8-67.1c-3.1-17.2-8-33.6-15-49.1c-1.5-3.3-3.1-6.3-5.2-8.8c-3-3.6-5.6-2.3-6.2,3.5c-0.4,3.8-0.5,7.8-0.5,11.6
			C328.7,321.7,328.5,338.1,328.2,354.3z"/>
		<path class="st0" d="M209.6,317.6c0.5,15.3-1.8,28.6-4.1,41.7c-0.8,4.8-2.6,5.7-5.8,4.3c-9.1-4-15.6-13.2-21.3-23.5
			c-6.3-11.2-11.9-22.9-17.7-34.3c-0.7-1.4-1.4-3.7-2.6-3.3c-1.4,0.5-0.8,3-0.7,4.6c0.6,23-3.8,42.9-9.9,60.7
			c-1.3,3.8-1.2,6.7,0.8,10.8c6.9,14.2,12.6,29.3,19,43.8c1.1,2.4,1.6,4.6,0.9,6.9c-1.8,6.5-2.6,13.5-3.2,20.4
			c-0.1,1.2,0.1,3.1-0.8,3.2c-1.2,0-1.5-2.1-2.1-3.3c-7.4-15.6-14.6-31.5-22.5-46.9c-2.7-5.2-3.1-5.2-4.7-0.9
			c-6.1,16.8-6.8,35.1-3.7,54.3c0.4,2.3,0.8,4.6,2.3,6.9c11.8,17.9,21.1,37.2,31.4,55.2c2.9,5,6,9.7,9.3,14.2
			c6,8.2,11.5,12,16.8,11.8c2.4-0.1,3.7,2.7,5.2,5.5c1.7,3.3,0.7,4-0.6,4.4c-8.5,2.9-16.9-2.2-29-18.7
			c-8.3-11.3-15.9-23.4-24.1-35.3c-5.2-7.5-10.5-14.8-16.6-20.9c-0.6-0.6-1.3-1.5-1.8-1.8c-7.6-4.4-10.3-12.4-13-20.2
			c-5.6-16.2-5.8-30.5-4.5-45.4c1.3-13.9,6.5-25.7,11.3-39c5.1-14.2,10.2-29.7,11.9-48.5c1.9-20.5-0.2-41.2-5.2-60.4
			c-5.2-20-11.9-37.2-18.1-53.1c-0.8-2-2.6-4-1.4-6.8c1.3-3.1,3.7-2.2,5.7-2.6c11.6-2.2,19.5,5.8,27.4,15.4
			c10.9,13.2,19.7,30.9,29.7,48.7c6,10.7,12.5,21.3,20.4,29.7c4.9,5.2,10.4,8.7,16.5,8.6c3.2-0.1,4.6,1.7,4.5,6.4
			C209.4,313.2,209.5,315.9,209.6,317.6z"/>
		<path class="st0" d="M280.1,60.3c-7.6,16.4-16.4,32.4-23.6,50.7c-8.2,21.1-8.9,42.5-3,64.9c3.2,12.1,6.9,24.1,11.1,36
			c1.3,3.8,1.2,6.6-0.9,9.7c-3.6,5.4-7.1,11-10.7,16.7c-1.7,2.6-3.1,3.4-4.2-0.5c-6.9-22.6-14.8-44-20.2-65.3
			c-5.7-22.3-1.8-52.6,8-73.6c6.3-15.5,13.2-30,19.2-44.5c6.8-16.3,6.2-30.6,0.5-43.2c-0.5-1-1.5-1.9-1-3.4c0.7-1.8,1.9-1,2.9-1.2
			c2.1-0.3,4.2-0.3,6.3-0.6c1.8-0.2,3.4,0.3,4.8,1.7c10.3,10.7,20.6,24,27.4,43.6c3.8,11.1,4.6,22.4,1.7,34.2
			c-1.6,6.6-3.4,13.2-5.1,20c-0.6,2.3-1.4,4.5-1.2,8.1c3-5.2,5.6-9.8,8.2-14.3c3.4-5.8,6.8-11.3,9.9-17.1c7.4-13.9,6.4-25-1.2-39.3
			c-6.4-12.1-13.7-22.2-19.9-32.7c-0.5-0.8-0.9-1.5-1.3-2.3c-1.1-2-0.5-2.8,1-2.8c2.6,0,5.3-0.1,7.9,0c7.9,0.5,15.6,0.6,23.2,0.9
			c2,0.1,3.6,1.2,4.7,4.1c5.1,13,10,26.4,11,41.5c1,13.3-1.4,25.2-5.2,37c-2.5,7.9-6.5,14.5-10.5,21.4
			c-10.4,18.2-12.9,39.9-6.7,64.5c1.5,6.2,3.2,12.3,4.8,18.5c0.3,1,0.8,2.1,0.3,3c-0.6,1.1-1.3,0.1-2-0.3c-6.9-5-14-6.8-21.6-4.6
			c-1.8,0.5-3.2,0.1-4.4-2c-6.8-12.8-13.9-25-18.8-38.8c-5.4-15.2-5.7-30.4-1.1-46.1c3.5-12,7.5-23.4,9.6-35.4
			C280.6,66.3,281.2,63.4,280.1,60.3z"/>
		<path class="st0" d="M427.7,287.5c-0.6,13.8-3.4,27.2-11.3,37.8c-7.2,9.8-15.5,10.7-22.8,2c-6.4-7.7-11-17.9-15-28.8
			c-14.7-38.1-30.6-75.5-47.7-112.7c-2.3-4.8-4-10-6-14.9c-7.3-17.7-5.5-34,0.6-49c4-9.8,8.7-18.3,11.6-28.3
			c3.1-10.9,4.7-22.2,5.8-33.3c1.7-16.8,6.1-29.7,12.1-39.2c1.5-2.4,3.3-4.1,5.4-5.1c4.2-1.9,8.3-3.1,13-2.5
			c6.1,0.8,12.3,5.9,18.8,14.8c3.8,5.2,5.4,9.6,4.3,13.6c-1.1,4.1-2.5,8.1-2.7,13.7c-0.3,8.9,0.5,19,1,29.4
			c0.3,6.1,0.9,12.5,1.2,18.9c0.3,6.9-2.6,9.2-8.2,6.6c-2.9-1.3-5.7-2.9-8.5-4.8c-2.4-1.5-3.3-3.6-3.7-6.8
			c-0.9-6.9-0.6-13.4-0.9-19.8c-0.6-14.3-0.8-27.7-1.4-40.5c-0.1-1.6-0.4-3.3-0.8-4.9c-0.7-3-2.2-4.8-4.2-5.4c-3.1-0.9-5.4,0-7,2.8
			c-3.1,5.7-4.6,13.4-5,22.5c-0.6,15.4-1.1,31.7-3.3,48.1c-1.3,10.2-3.5,20.2-6,30.3c-4.8,19.2-3.3,39.6,4.1,59.5
			c8.9,24.4,20.3,49.2,33.4,71.7c2.3,4.1,5,7.6,8.1,10.4c2.3,2.2,4.9,3.5,7.2,1.1c2.3-2.3,2.6-6.4,2-10.2
			c-0.8-6.2-2.3-12.1-4.4-17.7c-5.3-14-10.5-28.1-15.3-42.4c-1-2.9-1.8-5.9-2.7-8.9c-0.3-1-0.6-2.1,0.1-2.8c0.6-0.6,1.1,0.3,1.6,0.8
			c7,6.9,14.3,12.2,22.4,13.8c1.4,0.3,2.2,1.7,2.7,3.4c5.1,15.4,11.4,29.9,16.4,45.2C425.9,265.7,427.4,276,427.7,287.5z"/>
		<path class="st0" d="M405,177.1c-1.5-14.8-0.6-24.4-0.6-34c0.1-19.8-0.4-38.8-1.7-56.9c-1-13.6,0-25.1,0-36.1
			c0-5.6-0.5-11.3-1.4-17c-0.4-2.8,1.1-1.3,2.2-0.5c3.7,2.5,7.5,5.7,11,7.9c4.2,2.5,8.1,4.2,11.6,5.3c2.9,0.9,6,2.5,9.2,4.1
			c0.9,0.5,2,1.5,3.1,2.7c5.4,6.1,11,12.3,16.5,18.4c0.7,0.7,1.6,1.6,1.6,2.4c0,0.6-0.8,0-1.5-0.4c-6.4-4.2-12.4-7.3-18.1-9.3
			c-3-1-5.9-1.7-9.4-3.9c-2.5-1.6-1.2,1.1-0.2,3.1c3.8,7.4,6.7,14.5,7.8,21.4c0.9,5.8,0.7,10.9,0,16c-0.7,4.7-1.5,9.5-2.4,14.4
			c-0.2,1.1-0.6,2.3,0.3,3.6c1.2,1.7,1.6,0.2,2.1-0.4c7.2-7.5,15.9-9.7,24.5-10.9c1.1-0.1,2.4,0.1,3.6,0.4c0.7,0.1,1.2-0.9,2.3,0.9
			c0.9,1.3,0.7,2.3,0.7,3.3c0,6.3-0.2,12.8-0.8,19.6c-0.1,1.7-0.6,3.1-1.8,3.4c-8.9,2.3-14.4,11.3-21,20.5
			c-3.9,5.4-7.9,11.2-12.5,16.8c-2.1,2.6-2.5,5.9-1.7,10.3c3.1,18.4,9.5,35.6,16.1,52.5c1.3,3.3,2.3,3.4,3.8,0.8
			c5.6-9.8,10.7-19.5,16.4-27.4c1.9-2.7,4-4.9,6.2-7c1.5-1.4,2.7-0.9,3.5,2.3c2.3,8,5.3,15.6,8.1,23.2c0.9,2.3,1.4,4.3-0.4,5.6
			c-10.9,8-18.1,22.9-26.4,37.8c-3.3,5.9-6.6,12-10.1,18.2c-1.3,2.3-2.5,3.3-3.6-0.2c-9.5-27.6-20.8-54.4-30.1-82.1
			C408.4,195,405.7,184,405,177.1z"/>
		<path class="st0" d="M513.4,239.3c-4.5-3.1-8.6-7-13.3-8.7c-2.5-0.9-5-1.5-7.5-1.4c-2.7,0-4.2-1.8-5.7-5.4
			c-11.1-26.3-13.3-50.7-10.7-71.9c2.3-18.5,2.9-35.2-0.2-51.4c-1.8-9.7-7.6-18.1-17.1-28.3c-4.5-4.8-8.9-9.5-13.3-14.3
			c-0.3-0.3-0.5-0.7-0.8-1.1c0.3-0.3,0.9,0.3,1.4,0.7c12.1,10.1,23.6,18.6,36.1,29.9c11.8,10.5,23.6,21,36.5,34.6
			c11.6,12.2,17.8,20,18.4,28.4c0.6,8.1,1.3,18.2-1.5,26.9c-1,3.3-3.3,4.8-7.4,2.8c-2.9-1.4-2.5,1.1-1.9,3.7
			c2.5,11.6,6.3,23.6,11.1,35.6c7.7,19.4,16.4,37.6,23.1,55.5c3.6,9.5,6.4,19.1,8.1,28.7c0.8,4.5-0.5,6.8-4,7.3
			c-2.7,0.4-5.5-1.8-6.2-5.5c-4.2-22.4-14.3-43.8-25-66.1c-5.8-12.2-11.8-24.9-16.7-38.2c-4.4-12-7.5-23.9-9-34.9
			c-0.9-6.2-5.1-12.5-10.1-15.3c-1.2-0.7-1.8-0.5-1.8,0.9c-0.4,11.8-1,24.9,1.8,40.3c2.3,13.2,7.5,26.2,12.8,38.8
			c1,2.3,1.9,4.5,2.8,6.8C513.6,238,513.5,238.4,513.4,239.3z M516.6,127.5c-1.8-2.8-4.1-5.9-6.9-8.9c-5.2-5.6-10.4-10.5-15.5-15.2
			c-1.6-1.4-1.8-1.2-1.4,0.1c2.8,7.8,2.9,14.3,3.1,21.7c0,1.9,0.7,3.6,2.9,5.9c3.1,3.2,6.1,6.5,9.2,9.7c6.7,6.9,10.2,7.2,10.3,1.7
			c0-3,0.1-5.7,0.1-8.3C518.5,132.5,518.2,130.6,516.6,127.5z"/>
		<path class="st0" d="M233.9,32c-6.7,0.9-13.1,0.4-18.8-1c-3-0.8-3.8-0.2-5.9,4.6c-6.5,14.9-12.8,30.3-18.5,46.4
			c-2.9,8.1-5.7,16.3-7.9,24.7c-0.9,3.3-0.5,5.3,0.9,7.1c4.7,6.4,10.6,11.3,18,13.6c2.1,0.7,4.5,0,6.7,0c2.5,0.1,3.8,1.3,3.4,5.5
			c-0.9,8.2-1.5,16.5-0.9,24.8c0.4,4.7-2.7,4.6-4.6,4.5c-4.3-0.2-8.5-0.8-12.4-2.8c-5.8-2.9-10.9-7.2-15.6-11.7
			c-0.7-0.7-1.2-2.4-2.4-1.3c-1.2,1.1-1,3-1,4.6c0.3,13.5,3,26.1,6.9,38.6c4.6,14.9,10,30.2,15.2,46.1c2.1,6.3,4.3,9.4,11.6,7.7
			c9.5-2.2,17.2-9.8,24.4-18.9c3.7-4.7,3.9-4.7,6,1.7c2,6.1,3.9,12.4,5.9,18.6c0.8,2.5,1.1,4.7-0.5,7c-7.4,10.8-14.2,22.4-22.9,31
			c-12.3,12.1-25.1,10.6-35.9-3.4c-1.3-1.7-2.4-3.7-2.8-6.2c-4.9-27-14.7-53.7-24.3-79.4c-4.5-13.2-7.5-26.4-7.5-40.9
			c0-11.5,3.3-23.2,7.2-34.5c10.9-29.6,22.7-57.9,36-86.6c2.3-4.8,4.5-9.5,6.5-14.3c1.3-3.1,2.5-4.4,4.3-4.7c4-0.6,8-1.1,12.1-1.6
			c9.8-1.1,19.8-0.9,30.4-2.7c3-0.5,4.8,0.6,5.6,4.5c0.1,0.6,0.4,1.1,0.6,1.7c2.6,8.9,1.5,11.4-5.1,13.2
			C243.7,29.2,238.8,31.4,233.9,32z"/>
		<path class="st0" d="M99.2,154.4c-2.3,11.8-2.5,24.7,0.4,37c1.2,5.1,1.2,5.4-3,8.6c-4.2,3.2-8,7.3-12,10.9c-2,1.9-3.2,1.8-4.1-0.6
			c-6.9-17.7-5.6-36.7,1.5-58.1c6.2-18.7,16.1-36.2,26.3-53.7c4.7-8,9-15.9,11.5-23.1c3-8.7,1.8-12.3,0-14.3c-1.3-1.5-3.2-2-4.8-2.2
			c-0.3,0-1.3,0.6-0.3-0.8c0.8-1.1,1.7-1.7,2.4-2.3c8.9-7.6,16-12,22.7-14.1c6-1.9,12.1-2.5,19.9-5.6c4.8-1.9,9.9-4.7,15.1-7.1
			c3.7-1.8,7.4-3.4,10.8-3.6c4-0.3,4.8,3.1,2.3,10c-3.8,10.4-9.1,20.6-13.7,31.2c-3.8,8.7-7.7,17.6-12.7,26
			c-7.4,12.4-15.6,18.4-24,18.4c-5.7,0-11.1-0.4-16.4-0.3c-4.5,0.1-5.2,0.9-8.7,8C106.7,129.8,102.4,140.9,99.2,154.4z M142.1,87.1
			c3.1-0.6,6.2-3,9.2-7.4c6.7-9.9,11.4-20.5,16-30.8c1-2.3,0.8-3.8-0.3-4.3c-1.1-0.5-2.2-0.8-3.7-0.3c-6.8,2.4-13.4,4.8-19.2,6.2
			c-0.5,0.1-1.1,0.2-1.8,1.2c-0.9,1.3-0.5,1.7-0.4,2.3c0.3,3-0.1,6.9-2.2,12.2c-2.1,5.5-5,11.1-8,16.7c-1.1,2-2.5,4.6-0.7,4.5
			C134.6,87.3,137.9,88,142.1,87.1z"/>
		<path class="st0" d="M100.6,72c6.4-4.3,11.8-6.8,13.7-2.2c0.8,2,0.2,3.2-4.2,7.4c-4.7,4.4-9.4,9.3-14.1,14.8c-0.9,1-2,2.5-2.6,2.6
			c-0.7,0.1,0.2-1.4,0.7-2.4c2.2-4.6,2.5-7.5,0.7-7c-2.3,0.5-5.9,4.2-9.4,8.4C74.6,106,64.7,118.6,57,131.6
			c-2.8,4.7-3.6,8.3-3.7,11.6c-0.1,7.8,3.3,13.1,9,16.5c6.3,3.7,9.4,11.4,8,25.5c-0.9,9.7-1.1,19.5-2.7,30.1
			c-2.7,18.2-8.6,33.8-20.3,44.4c-6.4,5.8-12.5,6.4-17.8,1.3c-12.3-11.9-20.4-26-19.6-45c0-1-0.4-2.2,0.7-3.1c1.1-1,1.2,0.5,1.6,1.1
			c1.9,2.9,4.7,4.7,8.5,4.3c2.2-0.2,3.1,0.9,3.5,3.6c0.9,7.1,3.7,12.8,9.1,15.3c5.7,2.6,12.6-3.5,15-13c2.9-11.3,1.7-19.7-3-24.7
			c-3.8-4-8.1-6.7-9.7-12.3c-1.4-5-1.3-10.9-1.2-16.2c0-6.1,0.2-11.7,0.9-17c1.2-10.3,9.7-21.7,21.8-35.2
			c7.2-8.1,14.3-16.3,21.5-24.6c6.6-7.6,13.2-14.8,19.1-19.8c0.3-0.3,0.7-0.6,1-0.9C99.3,72.9,100,72.5,100.6,72z"/>
		<path class="st0" d="M245.3,320.6c0.1,34.2-8.1,68.1-22.9,98.8c-4.9,10.2-10.4,19.3-15.5,28.1c-9.8,17-13,36.4-9.4,58.8
			c2.4,14.8,10.1,26.3,20.1,31.6c9.5,5.1,18.8,8.8,28.2,12.3c2.6,1,3.8,2.8,4.2,6.3c0.4,3.3,1,6.5,1.5,9.8c0.5,3-0.2,3.9-2.2,2.6
			c-2.7-1.7-5.4-3.4-8.1-5.2c-10-6.5-20-8.2-29.7-11c-0.4-0.1-0.7,0-1.1-0.2c-3.3-1.2-6.7,0.8-9.7-3.4c-5.6-7.8-12.2-15.5-15.5-26
			c-5.3-16.8-7.4-33.1-7.7-50.1c-0.4-23.3,6.8-42.3,16.9-61.5c12.3-22.4,20.1-52,21.6-77.3c0.7-8.5,1.2-17.2,0.3-26
			c-0.5-5.3,0.7-8.9,4-11.6c6.3-5.3,11.5-13,16.7-20.8c0.9-1.4,1.5-4.1,3.2-3.3c1.4,0.7,1.3,3.4,1.6,5.3
			C244.5,290.5,244.9,303.7,245.3,320.6z"/>
	</g>
</g>
</svg>
